<svg xmlns="http://www.w3.org/2000/svg" viewBox="0 0 16.758 8.729"><path d="M16.537 6.252 14.26 8.51a.719.719 0 0 1-.51.219.689.689 0 0 1-.51-.219l-2.313-2.258a.72.72 0 0 1-.018-1.02.683.683 0 0 1 1 0l1 1.038V1.462H6.538a.729.729 0 1 1 0-1.457h7.194a.656.656 0 0 1 .656.71v5.537l1.093-1.038a.788.788 0 0 1 1.075 0 .742.742 0 0 1-.019 1.038Zm-6.32 1.038H3.825V2.463l1 1.038a.679.679 0 0 0 .492.219.729.729 0 0 0 .51-1.238L3.533.205a.76.76 0 0 0-1.038 0L.219 2.463a.7.7 0 0 0 0 1.02.77.77 0 0 0 1.075 0l1.092-1.038v5.537a.677.677 0 0 0 .656.747h7.194a.72.72 0 1 0-.018-1.439Z"/></svg>