<svg xmlns="http://www.w3.org/2000/svg" viewBox="0 0 14.747 13.358"><path d="M14.352 2.572A4.189 4.189 0 0 0 10.596 0a3.954 3.954 0 0 0-3.224 1.458A3.954 3.954 0 0 0 4.149 0 4.189 4.189 0 0 0 .396 2.572a4.362 4.362 0 0 0 .84 4.835 74.128 74.128 0 0 0 5.693 5.779.711.711 0 0 0 .926 0c.034-.017 2.675-2.418 5.693-5.779a4.413 4.413 0 0 0 .804-4.835ZM12.496 6.5a90.1 90.1 0 0 1-5.127 5.264A86.88 86.88 0 0 1 2.246 6.5a3.085 3.085 0 0 1-.617-3.378 2.894 2.894 0 0 1 2.52-1.75 2.447 2.447 0 0 1 2.555 1.715.661.661 0 0 0 .652.514.715.715 0 0 0 .669-.514 2.465 2.465 0 0 1 2.555-1.715 2.882 2.882 0 0 1 2.516 1.766 3.026 3.026 0 0 1-.6 3.362Zm-.171-1.989a.6.6 0 0 1-.566.634h-.034a.6.6 0 0 1-.6-.566c-.069-.977-.7-1.132-.823-1.149a.609.609 0 0 1-.514-.669.626.626 0 0 1 .686-.514 2.3 2.3 0 0 1 1.854 2.263Zm-.823.995a.757.757 0 0 1 .206.48.623.623 0 0 1-.206.48.663.663 0 0 1-.96 0 .721.721 0 0 1-.206-.48.649.649 0 0 1 .206-.48.721.721 0 0 1 .48-.206.862.862 0 0 1 .483.2Z"/></svg>