<svg xmlns="http://www.w3.org/2000/svg" viewBox="0 0 512 512"><path d="M176.79 0H59.21A59.28 59.28 0 0 0 0 59.21v117.58A59.28 59.28 0 0 0 59.21 236h117.58A59.28 59.28 0 0 0 236 176.79V59.21A59.28 59.28 0 0 0 176.79 0ZM196 176.79A19.23 19.23 0 0 1 176.79 196H59.21A19.23 19.23 0 0 1 40 176.79V59.21A19.23 19.23 0 0 1 59.21 40h117.58A19.23 19.23 0 0 1 196 59.21ZM452 0H336a60.07 60.07 0 0 0-60 60v116a60.07 60.07 0 0 0 60 60h116a60.07 60.07 0 0 0 60-60V60a60.07 60.07 0 0 0-60-60Zm20 176a20 20 0 0 1-20 20H336a20 20 0 0 1-20-20V60a20 20 0 0 1 20-20h116a20 20 0 0 1 20 20ZM176.79 276H59.21A59.28 59.28 0 0 0 0 335.21v117.58A59.28 59.28 0 0 0 59.21 512h117.58A59.28 59.28 0 0 0 236 452.79V335.21A59.28 59.28 0 0 0 176.79 276ZM196 452.79A19.23 19.23 0 0 1 176.79 472H59.21A19.23 19.23 0 0 1 40 452.79V335.21A19.23 19.23 0 0 1 59.21 316h117.58A19.23 19.23 0 0 1 196 335.21ZM452 276H336a60.07 60.07 0 0 0-60 60v116a60.07 60.07 0 0 0 60 60h116a60.07 60.07 0 0 0 60-60V336a60.07 60.07 0 0 0-60-60Zm20 176a20 20 0 0 1-20 20H336a20 20 0 0 1-20-20V336a20 20 0 0 1 20-20h116a20 20 0 0 1 20 20Z"/></svg>