<svg xmlns="http://www.w3.org/2000/svg" viewBox="0 0 512 512"><path d="M96,128H32A32,32,0,0,1,0,96V32A32,32,0,0,1,32,0H96a32,32,0,0,1,32,32V96A32,32,0,0,1,96,128ZM32,21.33A10.68,10.68,0,0,0,21.33,32V96A10.68,10.68,0,0,0,32,106.67H96A10.68,10.68,0,0,0,106.67,96V32A10.68,10.68,0,0,0,96,21.33ZM96,320H32A32,32,0,0,1,0,288V224a32,32,0,0,1,32-32H96a32,32,0,0,1,32,32v64A32,32,0,0,1,96,320ZM32,213.33A10.68,10.68,0,0,0,21.33,224v64A10.68,10.68,0,0,0,32,298.67H96A10.68,10.68,0,0,0,106.67,288V224A10.68,10.68,0,0,0,96,213.33ZM96,512H32A32,32,0,0,1,0,480V416a32,32,0,0,1,32-32H96a32,32,0,0,1,32,32v64A32,32,0,0,1,96,512ZM32,405.33A10.68,10.68,0,0,0,21.33,416v64A10.68,10.68,0,0,0,32,490.67H96A10.68,10.68,0,0,0,106.67,480V416A10.68,10.68,0,0,0,96,405.33ZM288,128H224a32,32,0,0,1-32-32V32A32,32,0,0,1,224,0h64a32,32,0,0,1,32,32V96A32,32,0,0,1,288,128ZM224,21.33A10.68,10.68,0,0,0,213.33,32V96A10.68,10.68,0,0,0,224,106.67h64A10.68,10.68,0,0,0,298.67,96V32A10.68,10.68,0,0,0,288,21.33ZM288,320H224a32,32,0,0,1-32-32V224a32,32,0,0,1,32-32h64a32,32,0,0,1,32,32v64A32,32,0,0,1,288,320ZM224,213.33A10.68,10.68,0,0,0,213.33,224v64A10.68,10.68,0,0,0,224,298.67h64A10.68,10.68,0,0,0,298.67,288V224A10.68,10.68,0,0,0,288,213.33ZM288,512H224a32,32,0,0,1-32-32V416a32,32,0,0,1,32-32h64a32,32,0,0,1,32,32v64A32,32,0,0,1,288,512ZM224,405.33A10.68,10.68,0,0,0,213.33,416v64A10.68,10.68,0,0,0,224,490.67h64A10.68,10.68,0,0,0,298.67,480V416A10.68,10.68,0,0,0,288,405.33ZM480,128H416a32,32,0,0,1-32-32V32A32,32,0,0,1,416,0h64a32,32,0,0,1,32,32V96A32,32,0,0,1,480,128ZM416,21.33A10.68,10.68,0,0,0,405.33,32V96A10.68,10.68,0,0,0,416,106.67h64A10.68,10.68,0,0,0,490.67,96V32A10.68,10.68,0,0,0,480,21.33ZM480,320H416a32,32,0,0,1-32-32V224a32,32,0,0,1,32-32h64a32,32,0,0,1,32,32v64A32,32,0,0,1,480,320ZM416,213.33A10.68,10.68,0,0,0,405.33,224v64A10.68,10.68,0,0,0,416,298.67h64A10.68,10.68,0,0,0,490.67,288V224A10.68,10.68,0,0,0,480,213.33ZM480,512H416a32,32,0,0,1-32-32V416a32,32,0,0,1,32-32h64a32,32,0,0,1,32,32v64A32,32,0,0,1,480,512ZM416,405.33A10.68,10.68,0,0,0,405.33,416v64A10.68,10.68,0,0,0,416,490.67h64A10.68,10.68,0,0,0,490.67,480V416A10.68,10.68,0,0,0,480,405.33Z"/></svg>