<svg viewBox="0 0 512 512" xmlns="http://www.w3.org/2000/svg" fill="#ffffff"><path d="M507.606 4.394A15.002 15.002 0 0 0 492.689.633L33.808 138.298C13.586 144.364 0 162.624 0 183.743c0 20.826 13.985 39.367 34.011 45.089L227.8 284.2l55.368 193.789C288.89 498.014 307.431 512 328.265 512c21.111 0 39.371-13.586 45.438-33.808L511.367 19.31a14.996 14.996 0 0 0-3.761-14.916zM30 183.736c0-7.761 4.994-14.473 12.428-16.703L444.324 46.464 235.568 255.22 42.252 199.987C35.039 197.925 30 191.246 30 183.736zm314.968 285.836c-2.23 7.434-8.942 12.428-16.711 12.428-7.503 0-14.182-5.038-16.243-12.252l-55.233-193.316L465.537 67.676z"/></svg>