<svg xmlns="http://www.w3.org/2000/svg" viewBox="0 0 14.529 13.582"><path d="M7.265 8.544a4.272 4.272 0 1 0-4.248-4.28 4.263 4.263 0 0 0 4.248 4.28Zm0-7.28a3 3 0 1 1-2.985 3 3 3 0 0 1 2.985-3.001Zm1.974 7.691a.635.635 0 0 0-.6.126l-1.374 1.168-1.374-1.168a.643.643 0 0 0-.6-.126c-.884.284-5.29 1.8-5.29 4a.634.634 0 0 0 .632.632H13.9a.634.634 0 0 0 .632-.632c-.003-2.2-4.409-3.716-5.293-4.001ZM1.6 12.318a10.773 10.773 0 0 1 3.759-2.037l1.5 1.279a.624.624 0 0 0 .821 0l1.5-1.279a11.312 11.312 0 0 1 3.759 2.037Z"/></svg>